<mxfile host="app.diagrams.net" agent="Mozilla/5.0 (X11; Linux x86_64) AppleWebKit/537.36 (KHTML, like Gecko) Chrome/136.0.0.0 Safari/537.36" version="26.3.0">
  <diagram name="Page-1" id="7e0a89b8-554c-2b80-1dc8-d5c74ca68de4">
    <mxGraphModel dx="1426" dy="795" grid="1" gridSize="10" guides="1" tooltips="1" connect="1" arrows="1" fold="1" page="1" pageScale="1" pageWidth="827" pageHeight="583" background="none" math="0" shadow="0">
      <root>
        <mxCell id="0" />
        <mxCell id="1" parent="0" />
        <mxCell id="3OrfRgS959KlM5Kg0PUu-35" style="edgeStyle=orthogonalEdgeStyle;rounded=0;orthogonalLoop=1;jettySize=auto;html=1;exitX=0.5;exitY=0;exitDx=0;exitDy=0;entryX=0.5;entryY=1;entryDx=0;entryDy=0;" edge="1" parent="1" source="3OrfRgS959KlM5Kg0PUu-1" target="3OrfRgS959KlM5Kg0PUu-2">
          <mxGeometry relative="1" as="geometry">
            <Array as="points">
              <mxPoint x="720" y="230" />
              <mxPoint x="760" y="230" />
            </Array>
          </mxGeometry>
        </mxCell>
        <mxCell id="3OrfRgS959KlM5Kg0PUu-1" value="ssr 3-32v" style="rounded=1;whiteSpace=wrap;html=1;fillColor=#647687;fontColor=#ffffff;strokeColor=#314354;" vertex="1" parent="1">
          <mxGeometry x="660" y="260" width="120" height="60" as="geometry" />
        </mxCell>
        <mxCell id="3OrfRgS959KlM5Kg0PUu-2" value="LAMP" style="ellipse;whiteSpace=wrap;html=1;aspect=fixed;fillColor=light-dark(#E3C800,#999900);fontColor=#000000;strokeColor=#B09500;" vertex="1" parent="1">
          <mxGeometry x="720" y="55" width="80" height="80" as="geometry" />
        </mxCell>
        <mxCell id="3OrfRgS959KlM5Kg0PUu-36" style="edgeStyle=orthogonalEdgeStyle;rounded=0;orthogonalLoop=1;jettySize=auto;html=1;exitX=1;exitY=0.5;exitDx=0;exitDy=0;entryX=0.25;entryY=1;entryDx=0;entryDy=0;" edge="1" parent="1" source="3OrfRgS959KlM5Kg0PUu-3" target="3OrfRgS959KlM5Kg0PUu-1">
          <mxGeometry relative="1" as="geometry" />
        </mxCell>
        <mxCell id="3OrfRgS959KlM5Kg0PUu-37" style="edgeStyle=orthogonalEdgeStyle;rounded=0;orthogonalLoop=1;jettySize=auto;html=1;exitX=1;exitY=0.75;exitDx=0;exitDy=0;entryX=0.5;entryY=1;entryDx=0;entryDy=0;" edge="1" parent="1" source="3OrfRgS959KlM5Kg0PUu-3" target="3OrfRgS959KlM5Kg0PUu-1">
          <mxGeometry relative="1" as="geometry" />
        </mxCell>
        <mxCell id="3OrfRgS959KlM5Kg0PUu-3" value="esp32-c3" style="rounded=1;whiteSpace=wrap;html=1;fillColor=#6d8764;fontColor=#ffffff;strokeColor=#3A5431;" vertex="1" parent="1">
          <mxGeometry x="230" y="300" width="120" height="110" as="geometry" />
        </mxCell>
        <mxCell id="3OrfRgS959KlM5Kg0PUu-44" style="edgeStyle=orthogonalEdgeStyle;rounded=0;orthogonalLoop=1;jettySize=auto;html=1;exitX=0.25;exitY=1;exitDx=0;exitDy=0;entryX=0.25;entryY=0;entryDx=0;entryDy=0;" edge="1" parent="1" source="3OrfRgS959KlM5Kg0PUu-4" target="3OrfRgS959KlM5Kg0PUu-3">
          <mxGeometry relative="1" as="geometry" />
        </mxCell>
        <mxCell id="3OrfRgS959KlM5Kg0PUu-45" style="edgeStyle=orthogonalEdgeStyle;rounded=0;orthogonalLoop=1;jettySize=auto;html=1;exitX=0.75;exitY=1;exitDx=0;exitDy=0;entryX=0.75;entryY=0;entryDx=0;entryDy=0;" edge="1" parent="1" source="3OrfRgS959KlM5Kg0PUu-4" target="3OrfRgS959KlM5Kg0PUu-3">
          <mxGeometry relative="1" as="geometry" />
        </mxCell>
        <mxCell id="3OrfRgS959KlM5Kg0PUu-4" value="220v&lt;div&gt;&amp;nbsp;to&amp;nbsp;&lt;/div&gt;&lt;div&gt;5v&amp;nbsp;&lt;/div&gt;" style="rounded=1;whiteSpace=wrap;html=1;arcSize=32;strokeWidth=1;glass=0;shadow=0;fillColor=light-dark(#E51400,#FF6666);fontColor=#ffffff;strokeColor=#B20000;fillStyle=auto;" vertex="1" parent="1">
          <mxGeometry x="230" y="160" width="120" height="90" as="geometry" />
        </mxCell>
        <mxCell id="3OrfRgS959KlM5Kg0PUu-18" style="edgeStyle=orthogonalEdgeStyle;rounded=0;orthogonalLoop=1;jettySize=auto;html=1;exitX=0.5;exitY=0;exitDx=0;exitDy=0;exitPerimeter=0;entryX=0.5;entryY=0;entryDx=0;entryDy=0;" edge="1" parent="1" source="3OrfRgS959KlM5Kg0PUu-5" target="3OrfRgS959KlM5Kg0PUu-2">
          <mxGeometry relative="1" as="geometry">
            <Array as="points">
              <mxPoint x="30" y="40" />
              <mxPoint x="760" y="40" />
            </Array>
          </mxGeometry>
        </mxCell>
        <mxCell id="3OrfRgS959KlM5Kg0PUu-34" style="edgeStyle=orthogonalEdgeStyle;rounded=0;orthogonalLoop=1;jettySize=auto;html=1;exitX=0.5;exitY=1;exitDx=0;exitDy=0;exitPerimeter=0;entryX=0.25;entryY=0;entryDx=0;entryDy=0;" edge="1" parent="1" source="3OrfRgS959KlM5Kg0PUu-5" target="3OrfRgS959KlM5Kg0PUu-1">
          <mxGeometry relative="1" as="geometry">
            <mxPoint x="820" y="210" as="targetPoint" />
            <Array as="points">
              <mxPoint x="30" y="120" />
              <mxPoint x="690" y="120" />
            </Array>
          </mxGeometry>
        </mxCell>
        <mxCell id="3OrfRgS959KlM5Kg0PUu-5" value="" style="pointerEvents=1;verticalLabelPosition=bottom;shadow=0;dashed=0;align=center;html=1;verticalAlign=top;shape=mxgraph.electrical.signal_sources.source;aspect=fixed;points=[[0.5,0,0],[1,0.5,0],[0.5,1,0],[0,0.5,0]];elSignalType=ac;fillColor=light-dark(#E51400,#990000);fontColor=#ffffff;strokeColor=#B20000;" vertex="1" parent="1">
          <mxGeometry y="50" width="60" height="60" as="geometry" />
        </mxCell>
        <mxCell id="3OrfRgS959KlM5Kg0PUu-64" style="edgeStyle=orthogonalEdgeStyle;rounded=0;orthogonalLoop=1;jettySize=auto;html=1;exitX=1;exitY=0.5;exitDx=0;exitDy=0;entryX=0.5;entryY=1;entryDx=0;entryDy=0;" edge="1" parent="1" source="3OrfRgS959KlM5Kg0PUu-6" target="3OrfRgS959KlM5Kg0PUu-3">
          <mxGeometry relative="1" as="geometry" />
        </mxCell>
        <mxCell id="3OrfRgS959KlM5Kg0PUu-65" value="BLE Signal" style="edgeLabel;html=1;align=center;verticalAlign=middle;resizable=0;points=[];" vertex="1" connectable="0" parent="3OrfRgS959KlM5Kg0PUu-64">
          <mxGeometry x="-0.3991" y="1" relative="1" as="geometry">
            <mxPoint as="offset" />
          </mxGeometry>
        </mxCell>
        <mxCell id="3OrfRgS959KlM5Kg0PUu-6" value="PHONE" style="rounded=1;whiteSpace=wrap;html=1;fillColor=light-dark(#0050EF,#0000CC);fontColor=#ffffff;strokeColor=#001DBC;" vertex="1" parent="1">
          <mxGeometry x="40" y="320" width="120" height="230" as="geometry" />
        </mxCell>
        <mxCell id="3OrfRgS959KlM5Kg0PUu-16" value="A/C Neutral" style="text;html=1;align=center;verticalAlign=middle;whiteSpace=wrap;rounded=0;" vertex="1" parent="1">
          <mxGeometry x="110" width="60" height="30" as="geometry" />
        </mxCell>
        <mxCell id="3OrfRgS959KlM5Kg0PUu-17" value="A/C Live" style="text;html=1;align=center;verticalAlign=middle;whiteSpace=wrap;rounded=0;" vertex="1" parent="1">
          <mxGeometry x="110" y="120" width="60" height="30" as="geometry" />
        </mxCell>
        <mxCell id="3OrfRgS959KlM5Kg0PUu-38" value="" style="endArrow=classic;html=1;rounded=0;entryX=0.75;entryY=0;entryDx=0;entryDy=0;jumpStyle=arc;jumpSize=15;" edge="1" parent="1" target="3OrfRgS959KlM5Kg0PUu-4">
          <mxGeometry width="50" height="50" relative="1" as="geometry">
            <mxPoint x="320" y="40" as="sourcePoint" />
            <mxPoint x="580" y="390" as="targetPoint" />
          </mxGeometry>
        </mxCell>
        <mxCell id="3OrfRgS959KlM5Kg0PUu-40" value="" style="endArrow=classic;html=1;rounded=0;entryX=0.25;entryY=0;entryDx=0;entryDy=0;" edge="1" parent="1" target="3OrfRgS959KlM5Kg0PUu-4">
          <mxGeometry width="50" height="50" relative="1" as="geometry">
            <mxPoint x="260" y="120" as="sourcePoint" />
            <mxPoint x="580" y="390" as="targetPoint" />
          </mxGeometry>
        </mxCell>
        <mxCell id="3OrfRgS959KlM5Kg0PUu-42" value="&lt;font style=&quot;font-size: 9px;&quot;&gt;1&lt;/font&gt;" style="text;html=1;align=center;verticalAlign=middle;whiteSpace=wrap;rounded=0;strokeWidth=0;" vertex="1" parent="1">
          <mxGeometry x="230" y="150" width="60" height="30" as="geometry" />
        </mxCell>
        <mxCell id="3OrfRgS959KlM5Kg0PUu-43" value="&lt;font style=&quot;font-size: 9px;&quot;&gt;2&lt;/font&gt;" style="text;html=1;align=center;verticalAlign=middle;whiteSpace=wrap;rounded=0;strokeWidth=0;" vertex="1" parent="1">
          <mxGeometry x="290" y="150" width="60" height="30" as="geometry" />
        </mxCell>
        <mxCell id="3OrfRgS959KlM5Kg0PUu-47" value="&lt;font style=&quot;font-size: 9px;&quot;&gt;+5v&lt;/font&gt;" style="text;html=1;align=center;verticalAlign=middle;whiteSpace=wrap;rounded=0;strokeWidth=0;" vertex="1" parent="1">
          <mxGeometry x="230" y="230" width="60" height="30" as="geometry" />
        </mxCell>
        <mxCell id="3OrfRgS959KlM5Kg0PUu-48" value="&lt;font style=&quot;font-size: 9px;&quot;&gt;0v/Gnd&lt;/font&gt;" style="text;html=1;align=center;verticalAlign=middle;whiteSpace=wrap;rounded=0;strokeWidth=0;" vertex="1" parent="1">
          <mxGeometry x="290" y="230" width="60" height="30" as="geometry" />
        </mxCell>
        <mxCell id="3OrfRgS959KlM5Kg0PUu-49" value="&lt;font style=&quot;font-size: 9px;&quot;&gt;VCC&lt;/font&gt;" style="text;html=1;align=center;verticalAlign=middle;whiteSpace=wrap;rounded=0;strokeWidth=0;" vertex="1" parent="1">
          <mxGeometry x="230" y="292" width="60" height="30" as="geometry" />
        </mxCell>
        <mxCell id="3OrfRgS959KlM5Kg0PUu-51" value="&lt;font style=&quot;font-size: 9px;&quot;&gt;GND&lt;/font&gt;" style="text;html=1;align=center;verticalAlign=middle;whiteSpace=wrap;rounded=0;strokeWidth=0;" vertex="1" parent="1">
          <mxGeometry x="290" y="292" width="60" height="30" as="geometry" />
        </mxCell>
        <mxCell id="3OrfRgS959KlM5Kg0PUu-52" value="&lt;font style=&quot;font-size: 9px;&quot;&gt;GPIO&lt;/font&gt;" style="text;html=1;align=center;verticalAlign=middle;whiteSpace=wrap;rounded=0;strokeWidth=0;" vertex="1" parent="1">
          <mxGeometry x="307" y="340" width="60" height="30" as="geometry" />
        </mxCell>
        <mxCell id="3OrfRgS959KlM5Kg0PUu-55" value="&lt;font style=&quot;font-size: 9px;&quot;&gt;Sig+&lt;/font&gt;" style="text;html=1;align=center;verticalAlign=middle;whiteSpace=wrap;rounded=0;strokeWidth=0;" vertex="1" parent="1">
          <mxGeometry x="660" y="300" width="60" height="30" as="geometry" />
        </mxCell>
        <mxCell id="3OrfRgS959KlM5Kg0PUu-57" value="&lt;font style=&quot;font-size: 9px;&quot;&gt;Sig-&lt;/font&gt;" style="text;html=1;align=center;verticalAlign=middle;whiteSpace=wrap;rounded=0;strokeWidth=0;" vertex="1" parent="1">
          <mxGeometry x="690" y="300" width="60" height="30" as="geometry" />
        </mxCell>
        <mxCell id="3OrfRgS959KlM5Kg0PUu-58" value="" style="html=1;shape=mxgraph.electrical.electro-mechanical.singleSwitch;aspect=fixed;elSwitchState=off;" vertex="1" parent="1">
          <mxGeometry x="696" y="262" width="20" height="5.33" as="geometry" />
        </mxCell>
        <mxCell id="3OrfRgS959KlM5Kg0PUu-59" value="On" style="rounded=1;whiteSpace=wrap;html=1;fillColor=light-dark(#D5E8D4,#336600);gradientColor=#97d077;strokeColor=#82b366;" vertex="1" parent="1">
          <mxGeometry x="50" y="460" width="40" height="20" as="geometry" />
        </mxCell>
        <mxCell id="3OrfRgS959KlM5Kg0PUu-60" value="Off" style="rounded=1;whiteSpace=wrap;html=1;fillColor=light-dark(#A20025,#990000);fontColor=#ffffff;strokeColor=#6F0000;" vertex="1" parent="1">
          <mxGeometry x="110" y="460" width="40" height="20" as="geometry" />
        </mxCell>
        <mxCell id="3OrfRgS959KlM5Kg0PUu-68" value="&lt;font style=&quot;font-size: 9px;&quot;&gt;GND&lt;/font&gt;" style="text;html=1;align=center;verticalAlign=middle;whiteSpace=wrap;rounded=0;strokeWidth=0;" vertex="1" parent="1">
          <mxGeometry x="308" y="367" width="60" height="30" as="geometry" />
        </mxCell>
      </root>
    </mxGraphModel>
  </diagram>
</mxfile>
